<?xml version="1.0" encoding="UTF-8" standalone="no"?>
<!-- Created with Inkscape (http://www.inkscape.org/) -->

<svg
   width="3.6320446in"
   height="2.4509933in"
   viewBox="0 0 92.253932 62.25523"
   version="1.1"
   id="svg1"
   inkscape:version="1.3.1 (91b66b0783, 2023-11-16)"
   xml:space="preserve"
   sodipodi:docname="Caster Mount.svg"
   xmlns:inkscape="http://www.inkscape.org/namespaces/inkscape"
   xmlns:sodipodi="http://sodipodi.sourceforge.net/DTD/sodipodi-0.dtd"
   xmlns="http://www.w3.org/2000/svg"
   xmlns:svg="http://www.w3.org/2000/svg"><sodipodi:namedview
     id="namedview1"
     pagecolor="#ffffff"
     bordercolor="#000000"
     borderopacity="0.25"
     inkscape:showpageshadow="false"
     inkscape:pageopacity="0.0"
     inkscape:pagecheckerboard="0"
     inkscape:deskcolor="#d1d1d1"
     inkscape:document-units="in"
     borderlayer="false"
     showborder="false"
     inkscape:zoom="2.5324601"
     inkscape:cx="144.32606"
     inkscape:cy="212.24421"
     inkscape:window-width="3840"
     inkscape:window-height="2126"
     inkscape:window-x="3829"
     inkscape:window-y="-11"
     inkscape:window-maximized="1"
     inkscape:current-layer="svg1" /><defs
     id="defs1"><marker
       id="DistanceX"
       orient="auto"
       refX="0"
       refY="0"
       style="overflow:visible"><path
         d="M 3,-3 -3,3 M 0,-5 V 5"
         style="stroke:#000000;stroke-width:0.5"
         id="path1" /></marker><pattern
       id="Hatch"
       patternUnits="userSpaceOnUse"
       width="8"
       height="8"
       x="0"
       y="0"><path
         d="M8 4 l-4,4"
         stroke="#000000"
         stroke-width="0.25"
         linecap="square"
         id="path2" /><path
         d="M6 2 l-4,4"
         stroke="#000000"
         stroke-width="0.25"
         linecap="square"
         id="path3" /><path
         d="M4 0 l-4,4"
         stroke="#000000"
         stroke-width="0.25"
         linecap="square"
         id="path4" /></pattern><symbol
       id="*Model_Space" /><symbol
       id="*Paper_Space" /><symbol
       id="*Paper_Space0" /></defs><path
     style="fill:none;stroke:#000000;stroke-width:0.254;stroke-linecap:round;stroke-dasharray:none"
     d="m 83.876944,12.87714 c 5.66118,-0.005 5.66118,-8.50506 0,-8.49921 h -2.50003 c -5.66111,0.005 -5.66111,8.50513 0,8.49921 z"
     id="path5"
     sodipodi:nodetypes="ccccc" /><path
     d="M 10.87701,4.37793 H 8.376987 c -5.661185,0.005 -5.661185,8.50513 0,8.49921 h 2.500023 c 5.661118,-0.005 5.661118,-8.50506 0,-8.49921 z"
     style="fill:none;stroke:#000000;stroke-width:0.254;stroke-linecap:round;stroke-dasharray:none"
     id="path12"
     sodipodi:nodetypes="ccccc" /><path
     style="fill:none;stroke:#000000;stroke-width:0.254;stroke-linecap:round;stroke-dasharray:none"
     d="m 82.126964,62.12823 c 5.52284,-6.6e-4 9.99999,-4.4778 9.99997,-10.00061 V 10.12763 c 3e-5,-5.52291 -4.47712,-10.00006 -9.99997,-10.00063 h -72 c -5.522847,5.7e-4 -10,4.47772 -9.999964,10.00063 v 41.99999 c -2.5e-5,5.52281 4.477125,9.99995 9.999964,10.00061 z"
     id="path13"
     sodipodi:nodetypes="ccccccccc" /><path
     style="fill:none;stroke:#000000;stroke-width:0.254;stroke-linecap:round;stroke-dasharray:none"
     d="m 8.376987,49.3781 c -5.65168,0.0145 -5.65168,8.48449 0,8.49919 h 2.500023 c 5.651613,-0.0147 5.651613,-8.48473 0,-8.49919 z"
     id="path22"
     sodipodi:nodetypes="ccccc" /><path
     d="m 81.376914,57.87729 h 2.50003 c 5.65168,-0.0147 5.65168,-8.48473 0,-8.49919 h -2.50003 c -5.65161,0.0145 -5.65161,8.48449 0,8.49919 z"
     style="fill:none;stroke:#000000;stroke-width:0.254;stroke-linecap:round;stroke-dasharray:none"
     id="path25"
     sodipodi:nodetypes="ccccc" /></svg>
