999
"DXF R12 Output" (www.mydxf.blogspot.com)
 0 
SECTION
 2 
HEADER
 9 
$ACADVER
 1 
AC1009
 9 
$EXTMIN
 10 
 0 
 20 
 0 
 9 
$EXTMAX
 10 
 8.5 
 20 
 11 
 0 
ENDSEC
 0 
SECTION
 2 
ENTITIES
0
LINE
8
Layer 1
10
3.000000
20
65.255200
11
-3.000000
21
59.255200
0
LINE
8
Layer 1
10
0.000000
20
67.255200
11
0.000000
21
57.255200
0
LINE
8
Layer 1
10
8.000000
20
58.255200
11
4.000000
21
54.255200
0
LINE
8
Layer 1
10
6.000000
20
60.255200
11
2.000000
21
56.255200
0
LINE
8
Layer 1
10
4.000000
20
62.255200
11
0.000000
21
58.255200
0
LINE
8
Layer 1
10
83.876944
20
49.378060
11
84.872073
21
49.474398
0
LINE
8
Layer 1
10
84.872073
20
49.474398
11
85.734519
21
49.744936
0
LINE
8
Layer 1
10
85.734519
20
49.744936
11
86.464280
21
50.164769
0
LINE
8
Layer 1
10
86.464280
20
50.164769
11
87.061358
21
50.708994
0
LINE
8
Layer 1
10
87.061358
20
50.708994
11
87.525751
21
51.352706
0
LINE
8
Layer 1
10
87.525751
20
51.352706
11
87.857461
21
52.071003
0
LINE
8
Layer 1
10
87.857461
20
52.071003
11
88.122829
21
53.631734
0
LINE
8
Layer 1
10
88.122829
20
53.631734
11
87.857461
21
55.191956
0
LINE
8
Layer 1
10
87.857461
20
55.191956
11
87.525751
21
55.909617
0
LINE
8
Layer 1
10
87.525751
20
55.909617
11
87.061358
21
56.552440
0
LINE
8
Layer 1
10
87.061358
20
56.552440
11
86.464280
21
57.095520
0
LINE
8
Layer 1
10
86.464280
20
57.095520
11
85.734519
21
57.513954
0
LINE
8
Layer 1
10
85.734519
20
57.513954
11
84.872073
21
57.782839
0
LINE
8
Layer 1
10
84.872073
20
57.782839
11
83.876944
21
57.877270
0
LINE
8
Layer 1
10
83.876944
20
57.877270
11
81.376914
21
57.877270
0
LINE
8
Layer 1
10
81.376914
20
57.877270
11
80.381797
21
57.780931
0
LINE
8
Layer 1
10
80.381797
20
57.780931
11
79.519362
21
57.510391
0
LINE
8
Layer 1
10
79.519362
20
57.510391
11
78.789610
21
57.090555
0
LINE
8
Layer 1
10
78.789610
20
57.090555
11
78.192540
21
56.546327
0
LINE
8
Layer 1
10
78.192540
20
56.546327
11
77.728152
21
55.902610
0
LINE
8
Layer 1
10
77.728152
20
55.902610
11
77.396446
21
55.184309
0
LINE
8
Layer 1
10
77.396446
20
55.184309
11
77.131081
21
53.623570
0
LINE
8
Layer 1
10
77.131081
20
53.623570
11
77.396446
21
52.063343
0
LINE
8
Layer 1
10
77.396446
20
52.063343
11
77.728152
21
51.345682
0
LINE
8
Layer 1
10
77.728152
20
51.345682
11
78.192540
21
50.702861
0
LINE
8
Layer 1
10
78.192540
20
50.702861
11
78.789610
21
50.159784
0
LINE
8
Layer 1
10
78.789610
20
50.159784
11
79.519362
21
49.741356
0
LINE
8
Layer 1
10
79.519362
20
49.741356
11
80.381797
21
49.472480
0
LINE
8
Layer 1
10
80.381797
20
49.472480
11
81.376914
21
49.378060
0
LINE
8
Layer 1
10
81.376914
20
49.378060
11
83.876944
21
49.378060
0
LINE
8
Layer 1
10
10.877010
20
57.877270
11
8.376987
21
57.877270
0
LINE
8
Layer 1
10
8.376987
20
57.877270
11
7.381857
21
57.780931
0
LINE
8
Layer 1
10
7.381857
20
57.780931
11
6.519411
21
57.510391
0
LINE
8
Layer 1
10
6.519411
20
57.510391
11
5.789649
21
57.090555
0
LINE
8
Layer 1
10
5.789649
20
57.090555
11
5.192570
21
56.546327
0
LINE
8
Layer 1
10
5.192570
20
56.546327
11
4.728176
21
55.902610
0
LINE
8
Layer 1
10
4.728176
20
55.902610
11
4.396466
21
55.184309
0
LINE
8
Layer 1
10
4.396466
20
55.184309
11
4.131098
21
53.623570
0
LINE
8
Layer 1
10
4.131098
20
53.623570
11
4.396466
21
52.063343
0
LINE
8
Layer 1
10
4.396466
20
52.063343
11
4.728176
21
51.345682
0
LINE
8
Layer 1
10
4.728176
20
51.345682
11
5.192570
21
50.702861
0
LINE
8
Layer 1
10
5.192570
20
50.702861
11
5.789649
21
50.159784
0
LINE
8
Layer 1
10
5.789649
20
50.159784
11
6.519411
21
49.741356
0
LINE
8
Layer 1
10
6.519411
20
49.741356
11
7.381857
21
49.472480
0
LINE
8
Layer 1
10
7.381857
20
49.472480
11
8.376987
21
49.378060
0
LINE
8
Layer 1
10
8.376987
20
49.378060
11
10.877010
21
49.378060
0
LINE
8
Layer 1
10
10.877010
20
49.378060
11
11.872128
21
49.474398
0
LINE
8
Layer 1
10
11.872128
20
49.474398
11
12.734564
21
49.744936
0
LINE
8
Layer 1
10
12.734564
20
49.744936
11
13.464318
21
50.164769
0
LINE
8
Layer 1
10
13.464318
20
50.164769
11
14.061389
21
50.708994
0
LINE
8
Layer 1
10
14.061389
20
50.708994
11
14.525777
21
51.352706
0
LINE
8
Layer 1
10
14.525777
20
51.352706
11
14.857484
21
52.071003
0
LINE
8
Layer 1
10
14.857484
20
52.071003
11
15.122848
21
53.631734
0
LINE
8
Layer 1
10
15.122848
20
53.631734
11
14.857484
21
55.191956
0
LINE
8
Layer 1
10
14.857484
20
55.191956
11
14.525777
21
55.909617
0
LINE
8
Layer 1
10
14.525777
20
55.909617
11
14.061389
21
56.552440
0
LINE
8
Layer 1
10
14.061389
20
56.552440
11
13.464318
21
57.095520
0
LINE
8
Layer 1
10
13.464318
20
57.095520
11
12.734564
21
57.513954
0
LINE
8
Layer 1
10
12.734564
20
57.513954
11
11.872128
21
57.782839
0
LINE
8
Layer 1
10
11.872128
20
57.782839
11
10.877010
21
57.877270
0
LINE
8
Layer 1
10
10.877010
20
57.877270
11
10.877010
21
57.877270
0
LINE
8
Layer 1
10
82.126964
20
0.126970
11
84.142310
21
0.330352
0
LINE
8
Layer 1
10
84.142310
20
0.330352
11
86.019410
21
0.913199
0
LINE
8
Layer 1
10
86.019410
20
0.913199
11
87.718052
21
1.835306
0
LINE
8
Layer 1
10
87.718052
20
1.835306
11
89.198022
21
3.056469
0
LINE
8
Layer 1
10
89.198022
20
3.056469
11
90.419107
21
4.536482
0
LINE
8
Layer 1
10
90.419107
20
4.536482
11
91.341097
21
6.235142
0
LINE
8
Layer 1
10
91.341097
20
6.235142
11
91.923776
21
8.112243
0
LINE
8
Layer 1
10
91.923776
20
8.112243
11
92.126934
21
10.127580
0
LINE
8
Layer 1
10
92.126934
20
10.127580
11
92.126934
21
52.127570
0
LINE
8
Layer 1
10
92.126934
20
52.127570
11
91.923780
21
54.142940
0
LINE
8
Layer 1
10
91.923780
20
54.142940
11
91.341102
21
56.020066
0
LINE
8
Layer 1
10
91.341102
20
56.020066
11
90.419114
21
57.718742
0
LINE
8
Layer 1
10
90.419114
20
57.718742
11
89.198029
21
59.198763
0
LINE
8
Layer 1
10
89.198029
20
59.198763
11
87.718059
21
60.419924
0
LINE
8
Layer 1
10
87.718059
20
60.419924
11
86.019416
21
61.342020
0
LINE
8
Layer 1
10
86.019416
20
61.342020
11
84.142313
21
61.924847
0
LINE
8
Layer 1
10
84.142313
20
61.924847
11
82.126964
21
62.128200
0
LINE
8
Layer 1
10
82.126964
20
62.128200
11
10.126964
21
62.128200
0
LINE
8
Layer 1
10
10.126964
20
62.128200
11
8.111615
21
61.924847
0
LINE
8
Layer 1
10
8.111615
20
61.924847
11
6.234513
21
61.342020
0
LINE
8
Layer 1
10
6.234513
20
61.342020
11
4.535871
21
60.419924
0
LINE
8
Layer 1
10
4.535871
20
60.419924
11
3.055901
21
59.198763
0
LINE
8
Layer 1
10
3.055901
20
59.198763
11
1.834816
21
57.718742
0
LINE
8
Layer 1
10
1.834816
20
57.718742
11
0.912829
21
56.020066
0
LINE
8
Layer 1
10
0.912829
20
56.020066
11
0.330153
21
54.142940
0
LINE
8
Layer 1
10
0.330153
20
54.142940
11
0.127000
21
52.127570
0
LINE
8
Layer 1
10
0.127000
20
52.127570
11
0.127000
21
10.127580
0
LINE
8
Layer 1
10
0.127000
20
10.127580
11
0.330156
21
8.112243
0
LINE
8
Layer 1
10
0.330156
20
8.112243
11
0.912835
21
6.235142
0
LINE
8
Layer 1
10
0.912835
20
6.235142
11
1.834823
21
4.536482
0
LINE
8
Layer 1
10
1.834823
20
4.536482
11
3.055908
21
3.056469
0
LINE
8
Layer 1
10
3.055908
20
3.056469
11
4.535877
21
1.835306
0
LINE
8
Layer 1
10
4.535877
20
1.835306
11
6.234518
21
0.913199
0
LINE
8
Layer 1
10
6.234518
20
0.913199
11
8.111618
21
0.330352
0
LINE
8
Layer 1
10
8.111618
20
0.330352
11
10.126964
21
0.126970
0
LINE
8
Layer 1
10
10.126964
20
0.126970
11
82.126964
21
0.126970
0
LINE
8
Layer 1
10
8.376987
20
12.877100
11
7.383528
21
12.779422
0
LINE
8
Layer 1
10
7.383528
20
12.779422
11
6.522530
21
12.508340
0
LINE
8
Layer 1
10
6.522530
20
12.508340
11
5.793993
21
12.088626
0
LINE
8
Layer 1
10
5.793993
20
12.088626
11
5.197917
21
11.545052
0
LINE
8
Layer 1
10
5.197917
20
11.545052
11
4.734303
21
10.902388
0
LINE
8
Layer 1
10
4.734303
20
10.902388
11
4.403150
21
10.185407
0
LINE
8
Layer 1
10
4.403150
20
10.185407
11
4.138227
21
8.627580
0
LINE
8
Layer 1
10
4.138227
20
8.627580
11
4.403150
21
7.069744
0
LINE
8
Layer 1
10
4.403150
20
7.069744
11
4.734303
21
6.352751
0
LINE
8
Layer 1
10
4.734303
20
6.352751
11
5.197917
21
5.710071
0
LINE
8
Layer 1
10
5.197917
20
5.710071
11
5.793993
21
5.166475
0
LINE
8
Layer 1
10
5.793993
20
5.166475
11
6.522530
21
4.746735
0
LINE
8
Layer 1
10
6.522530
20
4.746735
11
7.383528
21
4.475623
0
LINE
8
Layer 1
10
7.383528
20
4.475623
11
8.376987
21
4.377910
0
LINE
8
Layer 1
10
8.376987
20
4.377910
11
10.877010
21
4.377910
0
LINE
8
Layer 1
10
10.877010
20
4.377910
11
11.870458
21
4.475624
0
LINE
8
Layer 1
10
11.870458
20
4.475624
11
12.731446
21
4.746737
0
LINE
8
Layer 1
10
12.731446
20
4.746737
11
13.459974
21
5.166479
0
LINE
8
Layer 1
10
13.459974
20
5.166479
11
14.056042
21
5.710077
0
LINE
8
Layer 1
10
14.056042
20
5.710077
11
14.519651
21
6.352759
0
LINE
8
Layer 1
10
14.519651
20
6.352759
11
14.850800
21
7.069754
0
LINE
8
Layer 1
10
14.850800
20
7.069754
11
15.115720
21
8.627595
0
LINE
8
Layer 1
10
15.115720
20
8.627595
11
14.850800
21
10.185425
0
LINE
8
Layer 1
10
14.850800
20
10.185425
11
14.519651
21
10.902406
0
LINE
8
Layer 1
10
14.519651
20
10.902406
11
14.056042
21
11.545068
0
LINE
8
Layer 1
10
14.056042
20
11.545068
11
13.459974
21
12.088641
0
LINE
8
Layer 1
10
13.459974
20
12.088641
11
12.731446
21
12.508352
0
LINE
8
Layer 1
10
12.731446
20
12.508352
11
11.870458
21
12.779429
0
LINE
8
Layer 1
10
11.870458
20
12.779429
11
10.877010
21
12.877100
0
LINE
8
Layer 1
10
10.877010
20
12.877100
11
8.376987
21
12.877100
0
LINE
8
Layer 1
10
81.376914
20
4.377910
11
83.876944
21
4.377910
0
LINE
8
Layer 1
10
83.876944
20
4.377910
11
84.870403
21
4.475624
0
LINE
8
Layer 1
10
84.870403
20
4.475624
11
85.731402
21
4.746737
0
LINE
8
Layer 1
10
85.731402
20
4.746737
11
86.459938
21
5.166479
0
LINE
8
Layer 1
10
86.459938
20
5.166479
11
87.056014
21
5.710077
0
LINE
8
Layer 1
10
87.056014
20
5.710077
11
87.519628
21
6.352759
0
LINE
8
Layer 1
10
87.519628
20
6.352759
11
87.850781
21
7.069754
0
LINE
8
Layer 1
10
87.850781
20
7.069754
11
88.115704
21
8.627595
0
LINE
8
Layer 1
10
88.115704
20
8.627595
11
87.850781
21
10.185425
0
LINE
8
Layer 1
10
87.850781
20
10.185425
11
87.519628
21
10.902406
0
LINE
8
Layer 1
10
87.519628
20
10.902406
11
87.056014
21
11.545068
0
LINE
8
Layer 1
10
87.056014
20
11.545068
11
86.459938
21
12.088641
0
LINE
8
Layer 1
10
86.459938
20
12.088641
11
85.731402
21
12.508352
0
LINE
8
Layer 1
10
85.731402
20
12.508352
11
84.870403
21
12.779429
0
LINE
8
Layer 1
10
84.870403
20
12.779429
11
83.876944
21
12.877100
0
LINE
8
Layer 1
10
83.876944
20
12.877100
11
81.376914
21
12.877100
0
LINE
8
Layer 1
10
81.376914
20
12.877100
11
80.383467
21
12.779422
0
LINE
8
Layer 1
10
80.383467
20
12.779422
11
79.522479
21
12.508340
0
LINE
8
Layer 1
10
79.522479
20
12.508340
11
78.793952
21
12.088626
0
LINE
8
Layer 1
10
78.793952
20
12.088626
11
78.197883
21
11.545052
0
LINE
8
Layer 1
10
78.197883
20
11.545052
11
77.734275
21
10.902388
0
LINE
8
Layer 1
10
77.734275
20
10.902388
11
77.403126
21
10.185407
0
LINE
8
Layer 1
10
77.403126
20
10.185407
11
77.138206
21
8.627580
0
LINE
8
Layer 1
10
77.138206
20
8.627580
11
77.403126
21
7.069744
0
LINE
8
Layer 1
10
77.403126
20
7.069744
11
77.734275
21
6.352751
0
LINE
8
Layer 1
10
77.734275
20
6.352751
11
78.197883
21
5.710071
0
LINE
8
Layer 1
10
78.197883
20
5.710071
11
78.793952
21
5.166475
0
LINE
8
Layer 1
10
78.793952
20
5.166475
11
79.522479
21
4.746735
0
LINE
8
Layer 1
10
79.522479
20
4.746735
11
80.383467
21
4.475623
0
LINE
8
Layer 1
10
80.383467
20
4.475623
11
81.376914
21
4.377910
0
LINE
8
Layer 1
10
81.376914
20
4.377910
11
81.376914
21
4.377910
 0 
ENDSEC
 0 
EOF